<svg viewBox="0 0 260 53.9" xmlns="http://www.w3.org/2000/svg"><path clip-rule="evenodd" d="M24.8 33.9c-.7 1.7-1 3.5-1 5.4 0 8.1 6.5 14.6 14.6 14.6S53 47.4 53 39.3s-5.8-12.2-5.8-12.2c3.7-2.7 6.3-6.8 6.3-12 0-8.3-6.9-15-15.2-15S23.4 7 23.4 15.1s-6 8.9-9.1 8.9c-2.5 0-9.2-2.4-9.1-9.6.3-6.8 6.2-9.1 9.5-9.1 1.1 0 1.8.2 1.8.2l3.7-4.2S18 .2 14.8.1C7.2-.2.2 6 0 14.1-.2 22.3 6.1 29 14.2 29.2s12.1-5.3 12.1-5.3c2.7 3.6 6.9 5.8 11.9 5.8 5.5 0 9.4 4.4 9.4 9.5s-4.2 9.3-9.3 9.3-9.3-4.2-9.3-9.3c0-.6.1-1.2.2-1.7zm13.5-28c-5 0-9.1 4.1-9.1 9.1s4.1 9.1 9.1 9.1 9.1-4.1 9.1-9.1c0-5.1-4.1-9.1-9.1-9.1z" fill="#ce0e2d" fill-rule="evenodd"/><path d="M70.5 34.7c-.8.4-2.6 1-4.8 1-5 0-8.3-3.5-8.3-8.6s3.5-8.9 9-8.9c1.8 0 3.4.4 4.2.9l-.7 2.3c-.7-.4-1.9-.8-3.5-.8-3.8 0-5.9 2.8-5.9 6.3 0 3.9 2.5 6.3 5.8 6.3 1.7 0 2.9-.4 3.7-.8zm11.8-7.9c-3.3-.1-7.1.5-7.1 3.8 0 2 1.3 2.9 2.9 2.9 2.2 0 3.6-1.4 4-2.8.1-.3.2-.7.2-1zm2.9 4.5c0 1.5.1 2.9.3 4h-2.8l-.2-2.1h-.1c-.9 1.3-2.7 2.5-5.1 2.5-3.4 0-5.1-2.4-5.1-4.8 0-4 3.6-6.3 10.1-6.2v-.3c0-1.4-.4-3.9-3.8-3.9-1.6 0-3.2.5-4.4 1.2l-.7-2c1.4-.9 3.4-1.5 5.5-1.5 5.1 0 6.4 3.5 6.4 6.8v6.3zm4.1-8.2c0-1.7 0-3.1-.1-4.5h2.7l.1 2.7h.1c.9-1.6 2.5-3.1 5.3-3.1 2.3 0 4 1.4 4.7 3.4h.1c.5-.9 1.2-1.7 1.9-2.2 1-.8 2.1-1.2 3.7-1.2 2.2 0 5.5 1.5 5.5 7.3v9.8h-3v-9.5c0-3.2-1.2-5.1-3.6-5.1-1.7 0-3.1 1.3-3.6 2.8-.1.4-.2 1-.2 1.5v10.3h-3v-10c0-2.7-1.2-4.6-3.5-4.6-1.9 0-3.3 1.5-3.8 3-.2.4-.2 1-.2 1.5v10.1h-3V23.1zm31 5.4c0 .4.1.9.1 1.2.6 2.1 2.4 3.6 4.6 3.6 3.2 0 5.1-2.6 5.1-6.5 0-3.4-1.8-6.2-5-6.2-2.1 0-4 1.5-4.6 3.8-.1.4-.2.8-.2 1.2zm-3-4.4c0-2.1-.1-3.9-.1-5.5h2.7l.1 2.9h.1c1.2-2 3.2-3.2 5.9-3.2 4 0 7.1 3.4 7.1 8.5 0 6-3.7 9-7.6 9-2.2 0-4.1-1-5.1-2.6h-.1v9.1h-3zm37.1 10.2c-1.3.5-4 1.3-7.2 1.3-3.5 0-6.4-.9-8.7-3.1-2-1.9-3.2-5-3.2-8.7 0-6.9 4.8-12 12.6-12 2.7 0 4.8.6 5.8 1.1l-.7 2.5c-1.2-.6-2.8-1-5.1-1-5.7 0-9.4 3.5-9.4 9.4s3.6 9.4 9 9.4c2 0 3.3-.3 4-.6v-6.9h-4.7v-2.4h7.7v11zm4-23.5h3v24.5h-3zm16.1 16c-3.3-.1-7.1.5-7.1 3.8 0 2 1.3 2.9 2.9 2.9 2.2 0 3.6-1.4 4-2.8.1-.3.2-.7.2-1zm2.9 4.5c0 1.5.1 2.9.3 4h-2.8l-.2-2.1h-.1c-.9 1.3-2.7 2.5-5.1 2.5-3.4 0-5.1-2.4-5.1-4.8 0-4 3.6-6.3 10.1-6.2v-.3c0-1.4-.4-3.9-3.8-3.9-1.6 0-3.2.5-4.4 1.2l-.7-2c1.4-.9 3.4-1.5 5.5-1.5 5.1 0 6.4 3.5 6.4 6.8v6.3zm15.6-5.9c0-.4 0-.9-.1-1.3-.4-1.9-2.1-3.5-4.4-3.5-3.1 0-5 2.8-5 6.5 0 3.4 1.7 6.2 4.9 6.2 2 0 3.9-1.3 4.5-3.6.1-.4.1-.8.1-1.3zm3.1-14.6V31c0 1.5 0 3.2.1 4.3h-2.7l-.1-2.9h-.1c-.9 1.9-3 3.3-5.7 3.3-4 0-7.2-3.4-7.2-8.5 0-5.6 3.4-9 7.5-9 2.6 0 4.3 1.2 5 2.6h.1v-10zm4.2 24.5V18.6h3v16.7zm3.4-21.4c0 1-.7 1.9-1.9 1.9-1.1 0-1.8-.8-1.8-1.9s.8-1.9 1.9-1.9c1 0 1.8.8 1.8 1.9zm12.6 12.9c-3.3-.1-7.1.5-7.1 3.8 0 2 1.3 2.9 2.9 2.9 2.2 0 3.6-1.4 4-2.8.1-.3.2-.7.2-1zm2.9 4.5c0 1.5.1 2.9.3 4h-2.8l-.2-2.1h-.1c-.9 1.3-2.7 2.5-5.1 2.5-3.4 0-5.1-2.4-5.1-4.8 0-4 3.6-6.3 10.1-6.2v-.3c0-1.4-.4-3.9-3.8-3.9-1.6 0-3.2.5-4.4 1.2l-.7-2c1.4-.9 3.4-1.5 5.5-1.5 5.1 0 6.4 3.5 6.4 6.8v6.3zm7.6-16.7v4h4.4v2.3h-4.4v9c0 2.1.6 3.2 2.3 3.2.8 0 1.3-.1 1.8-.2l.1 2.3c-.6.2-1.5.4-2.7.4-1.4 0-2.6-.5-3.3-1.3-.9-.9-1.2-2.4-1.2-4.4v-9.1h-2.6v-2.3h2.6v-3.1zm8.5 12.4c0 3.7 2.1 6.4 5.1 6.4 2.9 0 5.1-2.7 5.1-6.5 0-2.8-1.4-6.4-5-6.4s-5.2 3.3-5.2 6.5zm13.3-.2c0 6.2-4.3 8.9-8.3 8.9-4.5 0-8-3.3-8-8.6 0-5.6 3.7-8.9 8.3-8.9 4.7 0 8 3.5 8 8.6zm3.1-3c0-2 0-3.7-.1-5.2h2.7l.1 3.3h.1c.8-2.2 2.6-3.7 4.6-3.7.3 0 .6 0 .9.1v2.9c-.3-.1-.6-.1-1-.1-2.1 0-3.7 1.6-4.1 3.9-.1.4-.1.9-.1 1.4v8.9h-3V23.8z" fill="#010101"/></svg>